<?xml version="1.0" standalone="no"?>
<!DOCTYPE svg PUBLIC "-//W3C//DTD SVG 20010904//EN"
 "http://www.w3.org/TR/2001/REC-SVG-20010904/DTD/svg10.dtd">
<svg version="1.0" xmlns="http://www.w3.org/2000/svg"
 width="220.000000pt" height="220.000000pt" viewBox="0 0 220.000000 220.000000"
 preserveAspectRatio="xMidYMid meet">

<g transform="translate(0.000000,220.000000) scale(0.100000,-0.100000)"
fill="#000000" stroke="none">
<path d="M40 2191 c0 -5 -9 -13 -20 -16 -20 -6 -20 -15 -20 -1091 l0 -1084
288 2 287 3 3 27 c2 16 -13 56 -42 110 -121 223 -125 324 -30 620 50 156 85
228 134 282 48 52 39 62 -13 16 l-34 -30 -76 78 c-180 183 -267 351 -267 517
0 57 4 77 15 81 20 8 238 -108 382 -203 71 -47 152 -111 203 -162 l84 -84 101
14 c59 8 198 14 340 15 l240 0 120 61 c122 61 317 149 413 185 l52 19 0 265
c0 262 0 264 -21 264 -36 0 -95 -40 -113 -76 -9 -19 -18 -53 -22 -77 -10 -76
-49 -154 -89 -179 -39 -23 -123 -24 -164 -1 -16 10 -45 41 -64 70 -33 50 -35
58 -42 170 -9 159 -13 191 -20 203 -8 13 -1625 14 -1625 1z"/>
<path d="M2150 1118 c-49 -54 -159 -138 -181 -138 -8 0 -27 14 -43 30 -46 47
-43 25 3 -26 24 -25 54 -71 68 -102 46 -102 136 -436 178 -657 l23 -120 1 533
c1 292 0 532 -1 531 -2 -1 -23 -24 -48 -51z"/>
<path d="M825 889 c-36 -21 -55 -53 -55 -96 0 -113 135 -144 170 -38 27 81
-50 170 -115 134z m40 -64 c0 -27 -3 -30 -30 -30 -21 0 -31 5 -33 18 -6 33 6
49 35 45 24 -3 28 -8 28 -33z"/>
<path d="M1561 886 c-58 -32 -69 -119 -22 -167 49 -48 114 -34 141 30 34 83
-48 177 -119 137z m48 -40 c20 -24 -4 -58 -37 -54 -27 3 -39 25 -28 54 7 18
50 18 65 0z"/>
<path d="M1111 636 c-26 -31 68 -60 104 -32 20 16 20 16 1 31 -25 19 -90 20
-105 1z"/>
<path d="M543 571 c-47 -22 -63 -45 -63 -94 0 -99 143 -142 220 -66 42 43 42
99 0 139 -26 24 -69 40 -104 40 -6 0 -30 -9 -53 -19z"/>
<path d="M1760 579 c-71 -29 -105 -101 -75 -158 27 -52 69 -73 144 -68 57 3
67 7 92 35 40 45 46 78 23 121 -10 19 -30 43 -44 53 -31 22 -106 32 -140 17z"/>
<path d="M1118 444 c-119 -64 -26 -234 128 -234 63 0 94 17 118 61 25 45 16
116 -20 159 -25 29 -28 30 -112 30 -57 -1 -96 -6 -114 -16z m202 -22 c18 -14
24 -32 28 -74 4 -47 1 -58 -21 -84 -23 -26 -30 -29 -82 -27 -84 4 -140 40
-151 99 -14 73 26 103 137 104 50 0 72 -5 89 -18z"/>
</g>
</svg>
